<svg width="22" height="22" viewBox="0 0 22 22" fill="none" xmlns="http://www.w3.org/2000/svg">
<path d="M16.8449 11.6875C16.8449 11.9594 16.7642 12.2253 16.6132 12.4514C16.4621 12.6775 16.2473 12.8538 15.9961 12.9578C15.7448 13.0619 15.4684 13.0891 15.2016 13.0361C14.9349 12.983 14.6899 12.8521 14.4976 12.6598C14.3053 12.4675 14.1744 12.2225 14.1213 11.9557C14.0683 11.689 14.0955 11.4126 14.1996 11.1613C14.3036 10.9101 14.4799 10.6953 14.706 10.5442C14.9321 10.3931 15.1979 10.3125 15.4699 10.3125C15.8346 10.3125 16.1843 10.4574 16.4422 10.7152C16.7 10.9731 16.8449 11.3228 16.8449 11.6875ZM20.2824 8.59375V15.4688C20.2824 16.1981 19.9927 16.8976 19.4769 17.4133C18.9612 17.929 18.2617 18.2188 17.5324 18.2188H5.15739C4.42804 18.2188 3.72857 17.929 3.21284 17.4133C2.69712 16.8976 2.40739 16.1981 2.40739 15.4688V5.23531C2.39681 4.86758 2.46012 4.50146 2.59358 4.15864C2.72704 3.81581 2.92793 3.50325 3.18435 3.23946C3.44077 2.97566 3.74751 2.766 4.08642 2.62288C4.42533 2.47976 4.7895 2.4061 5.15739 2.40625H16.5011C16.7746 2.40625 17.0369 2.5149 17.2303 2.7083C17.4237 2.90169 17.5324 3.164 17.5324 3.4375C17.5324 3.711 17.4237 3.97331 17.2303 4.1667C17.0369 4.3601 16.7746 4.46875 16.5011 4.46875H5.15739C5.06519 4.4687 4.97393 4.4872 4.88903 4.52314C4.80412 4.55907 4.72732 4.61172 4.66318 4.67795C4.59904 4.74417 4.54887 4.82262 4.51566 4.90863C4.48246 4.99464 4.46689 5.08645 4.46989 5.17859V5.18547C4.48433 5.3675 4.56787 5.53711 4.70337 5.65951C4.83888 5.78191 5.01608 5.84783 5.19864 5.84375H17.5324C18.2617 5.84375 18.9612 6.13348 19.4769 6.64921C19.9927 7.16493 20.2824 7.8644 20.2824 8.59375ZM18.2199 8.59375C18.2199 8.41141 18.1475 8.23655 18.0185 8.10761C17.8896 7.97868 17.7147 7.90625 17.5324 7.90625H5.19864C4.95277 7.90637 4.70788 7.87518 4.46989 7.81344V15.4688C4.46989 15.6511 4.54232 15.826 4.67125 15.9549C4.80018 16.0838 4.97505 16.1562 5.15739 16.1562H17.5324C17.7147 16.1562 17.8896 16.0838 18.0185 15.9549C18.1475 15.826 18.2199 15.6511 18.2199 15.4688V8.59375Z" fill="#A19FAA"/>
</svg>
